<mxfile host="65bd71144e">
    <diagram id="42Nycx8txgoCtysCIa7t" name="Page-1">
        <mxGraphModel dx="973" dy="1713" grid="1" gridSize="10" guides="1" tooltips="1" connect="1" arrows="1" fold="1" page="1" pageScale="1" pageWidth="850" pageHeight="1100" math="0" shadow="0">
            <root>
                <mxCell id="0"/>
                <mxCell id="1" parent="0"/>
                <mxCell id="5" value="Accion" style="swimlane;fontStyle=1;align=center;verticalAlign=top;childLayout=stackLayout;horizontal=1;startSize=26;horizontalStack=0;resizeParent=1;resizeParentMax=0;resizeLast=0;collapsible=1;marginBottom=0;fillColor=#0050ef;fontColor=#ffffff;strokeColor=#001DBC;fontSize=13;" parent="1" vertex="1">
                    <mxGeometry x="535" y="280" width="210" height="158" as="geometry"/>
                </mxCell>
                <mxCell id="6" value="+accionId: int&#10;+titulo: str&#10;+precioVentaActual: float&#10;+precioCompraActual: float" style="text;strokeColor=#314354;fillColor=#647687;align=left;verticalAlign=top;spacingLeft=4;spacingRight=4;overflow=hidden;rotatable=0;points=[[0,0.5],[1,0.5]];portConstraint=eastwest;fontColor=#ffffff;fontSize=14;" parent="5" vertex="1">
                    <mxGeometry y="26" width="210" height="98" as="geometry"/>
                </mxCell>
                <mxCell id="7" value="" style="line;strokeWidth=1;fillColor=none;align=left;verticalAlign=middle;spacingTop=-1;spacingLeft=3;spacingRight=3;rotatable=0;labelPosition=right;points=[];portConstraint=eastwest;strokeColor=inherit;" parent="5" vertex="1">
                    <mxGeometry y="124" width="210" height="8" as="geometry"/>
                </mxCell>
                <mxCell id="8" value="+consultarCotizacion()" style="text;strokeColor=#3A5431;fillColor=#6d8764;align=left;verticalAlign=top;spacingLeft=4;spacingRight=4;overflow=hidden;rotatable=0;points=[[0,0.5],[1,0.5]];portConstraint=eastwest;fontColor=#ffffff;fontSize=14;" parent="5" vertex="1">
                    <mxGeometry y="132" width="210" height="26" as="geometry"/>
                </mxCell>
                <mxCell id="9" value="Usuario" style="swimlane;fontStyle=1;align=center;verticalAlign=top;childLayout=stackLayout;horizontal=1;startSize=26;horizontalStack=0;resizeParent=1;resizeParentMax=0;resizeLast=0;collapsible=1;marginBottom=0;fillColor=#0050ef;fontColor=#ffffff;strokeColor=#001DBC;fontSize=13;" parent="1" vertex="1">
                    <mxGeometry x="270" y="-340" width="250" height="254" as="geometry"/>
                </mxCell>
                <mxCell id="10" value="+IdUsuario: int&#10;+nombre: str&#10;+apellido: str&#10;+saldoInicial: float&#10;+saldoActual: float" style="text;align=left;verticalAlign=top;spacingLeft=4;spacingRight=4;overflow=hidden;rotatable=0;points=[[0,0.5],[1,0.5]];portConstraint=eastwest;strokeWidth=1;fontSize=14;fillColor=#647687;fontColor=#ffffff;strokeColor=#314354;" parent="9" vertex="1">
                    <mxGeometry y="26" width="250" height="94" as="geometry"/>
                </mxCell>
                <mxCell id="11" value="" style="line;strokeWidth=1;fillColor=none;align=left;verticalAlign=middle;spacingTop=-1;spacingLeft=3;spacingRight=3;rotatable=0;labelPosition=right;points=[];portConstraint=eastwest;strokeColor=inherit;" parent="9" vertex="1">
                    <mxGeometry y="120" width="250" height="8" as="geometry"/>
                </mxCell>
                <mxCell id="12" value="+crearUsuario()&#10;+comprarAcciones(accion, cantidad)&#10;+venderAcciones(accion, cantidad)&#10;+consultarPortafolio()" style="text;align=left;verticalAlign=top;spacingLeft=4;spacingRight=4;overflow=hidden;rotatable=0;points=[[0,0.5],[1,0.5]];portConstraint=eastwest;fontSize=14;fillColor=#6d8764;fontColor=#ffffff;strokeColor=#3A5431;" parent="9" vertex="1">
                    <mxGeometry y="128" width="250" height="126" as="geometry"/>
                </mxCell>
                <mxCell id="27" value="Portafolio" style="swimlane;fontStyle=1;align=center;verticalAlign=top;childLayout=stackLayout;horizontal=1;startSize=26;horizontalStack=0;resizeParent=1;resizeParentMax=0;resizeLast=0;collapsible=1;marginBottom=0;strokeWidth=1;fontSize=14;fillColor=#0050ef;fontColor=#ffffff;strokeColor=#001DBC;" parent="1" vertex="1">
                    <mxGeometry x="560" y="4" width="160" height="178" as="geometry"/>
                </mxCell>
                <mxCell id="28" value="+usuarioId: int&#10;+totalInvertido: float&#10;+saldo: float&#10;+acciones: int&#10;+rendimiento: float&#10;" style="text;strokeColor=#314354;fillColor=#647687;align=left;verticalAlign=top;spacingLeft=4;spacingRight=4;overflow=hidden;rotatable=0;points=[[0,0.5],[1,0.5]];portConstraint=eastwest;strokeWidth=1;fontSize=14;fontColor=#ffffff;" parent="27" vertex="1">
                    <mxGeometry y="26" width="160" height="118" as="geometry"/>
                </mxCell>
                <mxCell id="29" value="" style="line;strokeWidth=1;fillColor=none;align=left;verticalAlign=middle;spacingTop=-1;spacingLeft=3;spacingRight=3;rotatable=0;labelPosition=right;points=[];portConstraint=eastwest;strokeColor=inherit;fontSize=14;" parent="27" vertex="1">
                    <mxGeometry y="144" width="160" height="8" as="geometry"/>
                </mxCell>
                <mxCell id="30" value="+ method(type): type" style="text;strokeColor=#3A5431;fillColor=#6d8764;align=left;verticalAlign=top;spacingLeft=4;spacingRight=4;overflow=hidden;rotatable=0;points=[[0,0.5],[1,0.5]];portConstraint=eastwest;strokeWidth=1;fontSize=14;fontColor=#ffffff;" parent="27" vertex="1">
                    <mxGeometry y="152" width="160" height="26" as="geometry"/>
                </mxCell>
                <mxCell id="31" value="" style="endArrow=classic;html=1;fontSize=14;" parent="1" edge="1">
                    <mxGeometry width="50" height="50" relative="1" as="geometry">
                        <mxPoint x="425" y="-86" as="sourcePoint"/>
                        <mxPoint x="555" y="44" as="targetPoint"/>
                    </mxGeometry>
                </mxCell>
                <mxCell id="32" value="1..1" style="text;html=1;strokeColor=none;fillColor=none;align=center;verticalAlign=middle;whiteSpace=wrap;rounded=0;strokeWidth=1;fontSize=14;" parent="1" vertex="1">
                    <mxGeometry x="450" y="-10" width="60" height="30" as="geometry"/>
                </mxCell>
                <mxCell id="36" value="PanelCotizaciones" style="swimlane;fontStyle=1;align=center;verticalAlign=top;childLayout=stackLayout;horizontal=1;startSize=26;horizontalStack=0;resizeParent=1;resizeParentMax=0;resizeLast=0;collapsible=1;marginBottom=0;strokeWidth=1;fontSize=13;fillColor=#0050ef;fontColor=#ffffff;strokeColor=#001DBC;" parent="1" vertex="1">
                    <mxGeometry x="110" y="100" width="200" height="246" as="geometry"/>
                </mxCell>
                <mxCell id="37" value="+nombreEmpresa: Str&#10;+ultimoOperando: float&#10;+cantidadCompraDiaria: Int&#10;+precioDeCompraActual: float&#10;+precioDeVentaActual: float&#10;+cantidadVentaDiaria: IntÂ &#10;+precioApertura: float&#10;+minimoDiario: float&#10;+maximoDiario: float&#10;+ultimoCierre: float&#10;&#10;&#10;" style="text;strokeColor=#314354;fillColor=#647687;align=left;verticalAlign=top;spacingLeft=4;spacingRight=4;overflow=hidden;rotatable=0;points=[[0,0.5],[1,0.5]];portConstraint=eastwest;strokeWidth=1;fontSize=14;fontColor=#ffffff;" parent="36" vertex="1">
                    <mxGeometry y="26" width="200" height="186" as="geometry"/>
                </mxCell>
                <mxCell id="38" value="" style="line;strokeWidth=1;fillColor=none;align=left;verticalAlign=middle;spacingTop=-1;spacingLeft=3;spacingRight=3;rotatable=0;labelPosition=right;points=[];portConstraint=eastwest;strokeColor=inherit;fontSize=13;" parent="36" vertex="1">
                    <mxGeometry y="212" width="200" height="8" as="geometry"/>
                </mxCell>
                <mxCell id="39" value="+consultarCotizacion(accion)" style="text;strokeColor=#3A5431;fillColor=#6d8764;align=left;verticalAlign=top;spacingLeft=4;spacingRight=4;overflow=hidden;rotatable=0;points=[[0,0.5],[1,0.5]];portConstraint=eastwest;strokeWidth=1;fontSize=13;fontColor=#ffffff;" parent="36" vertex="1">
                    <mxGeometry y="220" width="200" height="26" as="geometry"/>
                </mxCell>
                <mxCell id="41" value="" style="endArrow=classic;html=1;fontSize=14;" parent="1" edge="1">
                    <mxGeometry relative="1" as="geometry">
                        <mxPoint x="280" y="-80" as="sourcePoint"/>
                        <mxPoint x="250" y="90" as="targetPoint"/>
                    </mxGeometry>
                </mxCell>
                <mxCell id="42" value="Usa" style="edgeLabel;resizable=0;html=1;align=center;verticalAlign=middle;strokeWidth=1;fontSize=14;" parent="41" connectable="0" vertex="1">
                    <mxGeometry relative="1" as="geometry"/>
                </mxCell>
                <mxCell id="43" value="" style="endArrow=diamondThin;endFill=0;endSize=24;html=1;fontSize=14;" edge="1" parent="1">
                    <mxGeometry width="160" relative="1" as="geometry">
                        <mxPoint x="630" y="282" as="sourcePoint"/>
                        <mxPoint x="630" y="182" as="targetPoint"/>
                    </mxGeometry>
                </mxCell>
                <mxCell id="44" value="0..n" style="text;html=1;strokeColor=none;fillColor=none;align=center;verticalAlign=middle;whiteSpace=wrap;rounded=0;fontSize=14;" vertex="1" parent="1">
                    <mxGeometry x="640" y="190" width="60" height="30" as="geometry"/>
                </mxCell>
                <mxCell id="45" value="1..1" style="text;html=1;strokeColor=none;fillColor=none;align=center;verticalAlign=middle;whiteSpace=wrap;rounded=0;fontSize=14;" vertex="1" parent="1">
                    <mxGeometry x="270" y="-70" width="60" height="30" as="geometry"/>
                </mxCell>
                <mxCell id="46" value="1..n" style="endArrow=open;html=1;endSize=12;startArrow=diamondThin;startSize=14;startFill=1;edgeStyle=orthogonalEdgeStyle;align=left;verticalAlign=bottom;fontSize=14;entryX=0.092;entryY=-0.021;entryDx=0;entryDy=0;entryPerimeter=0;" edge="1" parent="1" target="5">
                    <mxGeometry x="-1" y="3" relative="1" as="geometry">
                        <mxPoint x="310" y="240" as="sourcePoint"/>
                        <mxPoint x="470" y="240" as="targetPoint"/>
                    </mxGeometry>
                </mxCell>
            </root>
        </mxGraphModel>
    </diagram>
</mxfile>